#!OML:ASF X:\für Bonn\!DataBase\2005_08_12_Daniel\c3d\Daniel.ASF
:FULLY-SPECIFIED
:DEGREES
49
root -2.88442 12.4152 -2.87651 309.503 -81.573 -328.831
lowerback 41.6413 -3.06159 -1.35735
upperback 3.63296 -5.73909 -3.07271
thorax -16.2852 -2.69967 0.15912
lowerneck 6.94828 2.11796 -2.05391
upperneck -0.197943 2.57014 -1.68931
head -1.22688 1.30258 -0.259058
rclavicle 9.98893e-015 1.19271e-014
rhumerus 62.6613 2.44 -92.4296
rradius 10.4094
rwrist 59.6588
rhand -19.2058 13.4202
rfingers 7.12502
rthumb 7.10646 -16.4405
lclavicle 9.98893e-015 1.19271e-014
lhumerus 65.9376 -1.83753 86.1512
lradius 10.7041
lwrist -56.4357
lhand -15.7539 2.79337
lfingers 7.12502
lthumb 10.4375 32.5143
rfemur -33.3438 -25.5644 -6.00969
rtibia 106.868
rfoot -25.8815 21.2886
rtoes -9.25885
lfemur -41.8876 5.76343 -15.0775
ltibia 102.556
lfoot -29.8356 -19.861
ltoes -0.618211
50
root -2.87757 12.2125 -2.87656 309.629 -81.6077 -329.286
lowerback 42.2224 -3.08228 -1.28745
upperback 3.6964 -5.75722 -3.04172
thorax -16.4069 -2.71119 0.187227
lowerneck 7.10802 2.12408 -1.92422
upperneck -0.349692 2.57934 -1.79188
head -1.30034 1.31176 -0.316124
rclavicle 2.85753e-014 8.34896e-015
rhumerus 62.7397 2.83067 -91.4544
rradius 10.6192
rwrist 58.6377
rhand -19.3545 13.5073
rfingers 7.12502
rthumb 6.963 -16.3581
lclavicle 2.85753e-014 8.34896e-015
lhumerus 66.1118 -2.07524 85.3609
lradius 10.7928
lwrist -55.6442
lhand -15.7949 2.68038
lfingers 7.12502
lthumb 10.398 32.4033
rfemur -33.9433 -27.0804 -7.35285
rtibia 108.925
rfoot -25.5693 23.1158
rtoes -8.76361
lfemur -43.1479 6.73306 -14.4922
ltibia 104.701
lfoot -29.3697 -21.0225
ltoes -0.177382
51
root -2.8716 12.0081 -2.87554 309.799 -81.6444 -329.801
lowerback 42.7946 -3.1185 -1.17984
upperback 3.78532 -5.78131 -3.03237
thorax -16.4971 -2.73015 0.173686
lowerneck 7.19373 2.12114 -1.80351
upperneck -0.48932 2.58037 -1.84616
head -1.35795 1.31574 -0.355601
rclavicle 2.07233e-014 3.06128e-014
rhumerus 62.9107 3.15071 -90.5933
rradius 10.8088
rwrist 57.6866
rhand -19.4641 13.6009
rfingers 7.12502
rthumb 6.85712 -16.268
lclavicle 2.07233e-014 3.06128e-014
lhumerus 66.3521 -2.31719 84.5849
lradius 10.8183
lwrist -54.9147
lhand -15.911 2.56941
lfingers 7.12502
lthumb 10.286 32.2979
rfemur -34.4478 -28.7089 -8.83836
rtibia 110.966
rfoot -25.2514 24.9747
rtoes -8.39911
lfemur -44.4001 7.74188 -13.8657
ltibia 106.839
lfoot -28.8959 -22.1948
ltoes 0.236196
52
root -2.86723 11.7989 -2.87483 309.929 -81.6731 -330.294
lowerback 43.3836 -3.14644 -1.09703
upperback 3.85479 -5.80329 -3.00995
thorax -16.6088 -2.7452 0.18755
lowerneck 7.27758 2.12433 -1.68024
upperneck -0.589286 2.5897 -1.91776
head -1.40235 1.32341 -0.40091
rclavicle -4.9895e-014 9.93923e-015
rhumerus 63.117 3.48719 -89.719
rradius 11.0139
rwrist 56.6961
rhand -19.4804 13.6886
rfingers 7.12502
rthumb 6.8414 -16.1809
lclavicle -4.9895e-014 9.93923e-015
lhumerus 66.5468 -2.55944 83.7716
lradius 10.8278
lwrist -54.1562
lhand -16.1282 2.48081
lfingers 7.12502
lthumb 10.0765 32.2196
rfemur -34.8092 -30.5067 -10.5472
rtibia 112.999
rfoot -24.934 26.9608
rtoes -7.90107
lfemur -45.6276 8.7935 -13.2182
ltibia 108.973
lfoot -28.3898 -23.3905
ltoes 0.691852
53
root -2.86451 11.5857 -2.8745 310.099 -81.7317 -330.838
lowerback 43.9378 -3.17302 -1.01425
upperback 3.94909 -5.82 -2.97428
thorax -16.6732 -2.76025 0.211275
lowerneck 7.31129 2.13322 -1.59801
upperneck -0.685582 2.60513 -1.97601
head -1.43751 1.33377 -0.434793
rclavicle -3.11595e-014 -2.98177e-014
rhumerus 63.4964 3.82948 -88.8871
rradius 11.0964
rwrist 55.6891
rhand -19.5033 13.8107
rfingers 7.12502
rthumb 6.81929 -16.0595
lclavicle -3.11595e-014 -2.98177e-014
lhumerus 66.7264 -2.74011 83.0157
lradius 10.8957
lwrist -53.5261
lhand -16.3262 2.35657
lfingers 7.12502
lthumb 9.88545 32.1045
rfemur -35.032 -32.4415 -12.4331
rtibia 115.021
rfoot -24.6451 29.0233
rtoes -7.56482
lfemur -46.8553 9.93782 -12.4848
ltibia 111.117
lfoot -27.895 -24.6268
ltoes 1.04372
